<svg width="1600" height="900" viewBox="0 0 1600 900" xmlns="http://www.w3.org/2000/svg">
  <defs>
    <radialGradient id="centerGlow" cx="50%" cy="45%" r="62%">
      <stop offset="0%" stop-color="#3a3731" stop-opacity="0.72"/>
      <stop offset="45%" stop-color="#14161a" stop-opacity="0.82"/>
      <stop offset="100%" stop-color="#030509"/>
    </radialGradient>
    <radialGradient id="logoGlow" cx="50%" cy="50%" r="55%">
      <stop offset="0%" stop-color="#f6ead2" stop-opacity="0.8"/>
      <stop offset="42%" stop-color="#c6aa78" stop-opacity="0.12"/>
      <stop offset="100%" stop-color="#c6aa78" stop-opacity="0"/>
    </radialGradient>
    <linearGradient id="cream" x1="0" y1="0" x2="1" y2="1">
      <stop offset="0%" stop-color="#fff8e8"/>
      <stop offset="100%" stop-color="#d6c8ad"/>
    </linearGradient>
    <filter id="softGlow" x="-40%" y="-40%" width="180%" height="180%">
      <feGaussianBlur stdDeviation="7" result="blur"/>
      <feColorMatrix in="blur" type="matrix" values="1 0 0 0 0.98 0 1 0 0 0.88 0 0 1 0 0.62 0 0 0 0.75 0"/>
      <feMerge>
        <feMergeNode/>
        <feMergeNode in="SourceGraphic"/>
      </feMerge>
    </filter>
    <pattern id="dotField" width="34" height="22" patternUnits="userSpaceOnUse">
      <circle cx="2" cy="3" r="1.2" fill="#dfcfaa" opacity="0.42"/>
    </pattern>
  </defs>

  <rect width="1600" height="900" fill="url(#centerGlow)"/>
  <rect y="500" width="1600" height="360" fill="url(#dotField)" opacity="0.78"/>
  <path d="M-70 455 C310 540, 620 600, 980 560 C1245 530, 1415 465, 1660 485" fill="none" stroke="#d8c495" stroke-opacity="0.13" stroke-width="2"/>
  <path d="M-40 650 C350 575, 725 640, 980 625 C1240 610, 1428 545, 1660 575" fill="none" stroke="#d8c495" stroke-opacity="0.11" stroke-width="2"/>
  <path d="M95 405 C250 155, 510 78, 825 74" fill="none" stroke="#f2dfb8" stroke-opacity="0.72" stroke-width="2"/>
  <path d="M95 405 C250 155, 510 78, 825 74" fill="none" stroke="#f2dfb8" stroke-opacity="0.18" stroke-width="14"/>
  <path d="M1390 126 L1390 258 Q1390 286 1362 286 L1265 286 Q1238 286 1238 314 L1238 383 Q1238 412 1267 412 L1410 412 Q1438 412 1438 440 L1438 532 Q1438 560 1410 560 L1318 560" fill="none" stroke="#e7d3aa" stroke-opacity="0.07" stroke-width="1.5"/>
  <ellipse cx="800" cy="405" rx="420" ry="240" fill="url(#logoGlow)" opacity="0.75"/>

  <g transform="translate(452 294)" filter="url(#softGlow)" fill="url(#cream)">
    <rect x="0" y="102" width="190" height="49" rx="24.5"/>
    <rect x="54" y="3" width="128" height="49" rx="24.5"/>
    <rect x="126" y="51" width="108" height="49" rx="24.5"/>
    <rect x="126" y="51" width="49" height="170" rx="24.5"/>
    <rect x="0" y="102" width="122" height="49" rx="24.5"/>
  </g>
  <text x="730" y="498" fill="url(#cream)" font-family="Inter, Arial, Helvetica, sans-serif" font-size="150" font-weight="800" letter-spacing="-8" filter="url(#softGlow)">Rialo</text>
  <rect width="1600" height="900" fill="#000" opacity="0.1"/>
</svg>
